<svg width="38" height="31" viewBox="0 0 38 31" fill="none"
    xmlns="http://www.w3.org/2000/svg">
    <path d="M38.0011 4.33417C36.6342 4.93985 35.1658 5.3491 33.6222 5.53407C35.2149 4.58102 36.4066 3.08102 36.9747 1.31397C35.4782 2.20282 33.8404 2.82848 32.1325 3.16374C30.984 1.93743 29.4627 1.12461 27.8049 0.85148C26.1471 0.578348 24.4455 0.860184 22.9642 1.65323C21.483 2.44628 20.305 3.70617 19.6132 5.2373C18.9214 6.76842 18.7544 8.48512 19.1383 10.1209C16.1061 9.96862 13.1398 9.1805 10.4319 7.80767C7.72403 6.43483 5.33507 4.50796 3.42008 2.15209C2.76529 3.2816 2.38879 4.59118 2.38879 5.98588C2.38806 7.24142 2.69725 8.47774 3.28892 9.58513C3.8806 10.6925 4.73647 11.6368 5.78059 12.334C4.56968 12.2955 3.3855 11.9683 2.32658 11.3797V11.4779C2.32646 13.2389 2.93559 14.9456 4.05061 16.3086C5.16563 17.6716 6.71787 18.6068 8.44394 18.9556C7.32062 19.2596 6.14291 19.3044 4.99975 19.0865C5.48675 20.6017 6.43537 21.9267 7.71281 22.876C8.99026 23.8253 10.5326 24.3513 12.1238 24.3805C9.42257 26.5011 6.08652 27.6513 2.65234 27.6463C2.04401 27.6464 1.4362 27.6109 0.832031 27.5399C4.31792 29.7812 8.37574 30.9706 12.52 30.966C26.5488 30.966 34.218 19.3468 34.218 9.26964C34.218 8.94224 34.2098 8.61158 34.1951 8.28418C35.6869 7.20538 36.9745 5.86948 37.9978 4.33909L38.0011 4.33417Z" fill="white"/>
</svg>
