<svg width="14" height="16" viewBox="0 0 14 16" fill="none"
    xmlns="http://www.w3.org/2000/svg">
<path d="M12.7268 14.6668C12.7268 12.0868 10.1601 10.0002 7.0001 10.0002C3.8401 10.0002 1.27344 12.0868 1.27344 14.6668M7.0001 8.00016C7.88416 8.00016 8.73201 7.64897 9.35713 7.02385C9.98225 6.39873 10.3334 5.55088 10.3334 4.66683C10.3334 3.78277 9.98225 2.93493 9.35713 2.30981C8.73201 1.68469 7.88416 1.3335 7.0001 1.3335C6.11605 1.3335 5.2682 1.68469 4.64308 2.30981C4.01796 2.93493 3.66677 3.78277 3.66677 4.66683C3.66677 5.55088 4.01796 6.39873 4.64308 7.02385C5.2682 7.64897 6.11605 8.00016 7.0001 8.00016Z" stroke="white" strokeWidth="1.5" strokeLinecap="round" strokeLinejoin="round" />

</svg>