<svg width="18" height="17" viewBox="0 0 18 17" fill="none"
    xmlns="http://www.w3.org/2000/svg">
    <path d="M2.98635 8.57631V11.6069M15.1088 8.57631V11.6069M2.98635 11.6069V15.6477H15.1088V11.6069M2.98635 11.6069H15.1088M3.49145 1.50488H14.6037C14.7683 1.79298 17.4664 5.0406 16.1193 6.0508C14.3682 7.36399 13.0884 5.5457 13.0884 5.5457C13.0884 5.5457 12.269 6.40938 11.5731 6.5559C10.5336 6.77474 9.04757 5.5457 9.04757 5.5457C9.04757 5.5457 7.68275 6.69122 6.69043 6.5559C5.93068 6.4523 5.00676 5.5457 5.00676 5.5457C5.00676 5.5457 2.8585 6.93295 1.97635 6.0508C0.538383 4.61283 2.78239 2.74575 3.49145 1.50488Z" stroke="white" stroke-width="1.69" stroke-linecap="round" stroke-linejoin="round" />
</svg>