<svg width="31" height="31" viewBox="0 0 31 31" fill="none"
    xmlns="http://www.w3.org/2000/svg">
    <path fill-rule="evenodd" clip-rule="evenodd" d="M9.63427 0.84C11.2338 0.766364 11.7438 0.75 15.8184 0.75C19.8929 0.75 20.4029 0.767727 22.0011 0.84C23.5993 0.912273 24.6902 1.16727 25.6447 1.53682C26.6443 1.91455 27.5511 2.505 28.3011 3.26864C29.0647 4.01727 29.6538 4.92273 30.0302 5.92364C30.4011 6.87818 30.6547 7.96909 30.7284 9.56455C30.802 11.1668 30.8184 11.6768 30.8184 15.75C30.8184 19.8245 30.8006 20.3345 30.7284 21.9341C30.6561 23.5295 30.4011 24.6205 30.0302 25.575C29.6538 26.576 29.0637 27.483 28.3011 28.2327C27.5511 28.9964 26.6443 29.5855 25.6447 29.9618C24.6902 30.3327 23.5993 30.5864 22.0038 30.66C20.4029 30.7336 19.8929 30.75 15.8184 30.75C11.7438 30.75 11.2338 30.7323 9.63427 30.66C8.03881 30.5877 6.94791 30.3327 5.99336 29.9618C4.99234 29.5854 4.08539 28.9953 3.33563 28.2327C2.57251 27.4836 1.98197 26.5771 1.60518 25.5764C1.23563 24.6218 0.981996 23.5309 0.908359 21.9355C0.834723 20.3332 0.818359 19.8232 0.818359 15.75C0.818359 11.6755 0.836087 11.1655 0.908359 9.56727C0.980632 7.96909 1.23563 6.87818 1.60518 5.92364C1.98253 4.92284 2.57352 4.01634 3.337 3.26727C4.08569 2.50432 4.99173 1.91379 5.992 1.53682C6.94654 1.16727 8.03745 0.913636 9.63291 0.84H9.63427ZM21.8797 3.54C20.2979 3.46773 19.8234 3.45273 15.8184 3.45273C11.8134 3.45273 11.3388 3.46773 9.757 3.54C8.29381 3.60682 7.50018 3.85091 6.97109 4.05682C6.27154 4.32955 5.77109 4.65273 5.24609 5.17773C4.74842 5.66189 4.36542 6.25129 4.12518 6.90273C3.91927 7.43182 3.67518 8.22546 3.60836 9.68864C3.53609 11.2705 3.52109 11.745 3.52109 15.75C3.52109 19.755 3.53609 20.2295 3.60836 21.8114C3.67518 23.2745 3.91927 24.0682 4.12518 24.5973C4.36518 25.2477 4.74836 25.8382 5.24609 26.3223C5.73018 26.82 6.32063 27.2032 6.97109 27.4432C7.50018 27.6491 8.29381 27.8932 9.757 27.96C11.3388 28.0323 11.812 28.0473 15.8184 28.0473C19.8247 28.0473 20.2979 28.0323 21.8797 27.96C23.3429 27.8932 24.1365 27.6491 24.6656 27.4432C25.3652 27.1705 25.8656 26.8473 26.3906 26.3223C26.8884 25.8382 27.2715 25.2477 27.5115 24.5973C27.7175 24.0682 27.9615 23.2745 28.0284 21.8114C28.1006 20.2295 28.1156 19.755 28.1156 15.75C28.1156 11.745 28.1006 11.2705 28.0284 9.68864C27.9615 8.22546 27.7175 7.43182 27.5115 6.90273C27.2388 6.20318 26.9156 5.70273 26.3906 5.17773C25.9064 4.6801 25.317 4.29711 24.6656 4.05682C24.1365 3.85091 23.3429 3.60682 21.8797 3.54ZM13.9025 20.3741C14.9724 20.8195 16.1639 20.8796 17.2733 20.5442C18.3827 20.2087 19.3412 19.4985 19.9851 18.5349C20.629 17.5712 20.9184 16.4139 20.8039 15.2606C20.6893 14.1073 20.1779 13.0295 19.357 12.2114C18.8337 11.6884 18.2009 11.2879 17.5043 11.0388C16.8076 10.7897 16.0644 10.6982 15.3281 10.7708C14.5919 10.8435 13.8808 11.0784 13.2463 11.4588C12.6117 11.8392 12.0694 12.3556 11.6583 12.9707C11.2473 13.5859 10.9777 14.2845 10.8691 15.0163C10.7604 15.7481 10.8154 16.4949 11.03 17.203C11.2446 17.911 11.6136 18.5627 12.1103 19.111C12.6069 19.6593 13.219 20.0907 13.9025 20.3741ZM10.3665 10.2982C11.0825 9.58224 11.9324 9.01432 12.8679 8.62686C13.8033 8.23939 14.8059 8.03997 15.8184 8.03997C16.8309 8.03997 17.8334 8.23939 18.7689 8.62686C19.7043 9.01432 20.5542 9.58224 21.2702 10.2982C21.9861 11.0141 22.554 11.8641 22.9415 12.7995C23.329 13.7349 23.5284 14.7375 23.5284 15.75C23.5284 16.7625 23.329 17.7651 22.9415 18.7005C22.554 19.6359 21.9861 20.4859 21.2702 21.2018C19.8243 22.6477 17.8632 23.46 15.8184 23.46C13.7735 23.46 11.8125 22.6477 10.3665 21.2018C8.92063 19.7559 8.10832 17.7948 8.10832 15.75C8.10832 13.7052 8.92063 11.7441 10.3665 10.2982ZM25.2384 9.18818C25.4158 9.02082 25.5578 8.81957 25.656 8.59633C25.7543 8.37309 25.8067 8.13241 25.8103 7.88854C25.8138 7.64467 25.7684 7.40257 25.6767 7.17656C25.5851 6.95055 25.4489 6.74524 25.2765 6.57278C25.104 6.40032 24.8987 6.26421 24.6727 6.17252C24.4467 6.08083 24.2046 6.03542 23.9607 6.03898C23.7169 6.04253 23.4762 6.09498 23.2529 6.19322C23.0297 6.29146 22.8284 6.43349 22.6611 6.61091C22.3356 6.95595 22.1574 7.41426 22.1643 7.88854C22.1712 8.36283 22.3627 8.81574 22.6981 9.15115C23.0335 9.48656 23.4864 9.67804 23.9607 9.68495C24.435 9.69187 24.8933 9.51367 25.2384 9.18818Z" fill="white"/>
</svg>
