<svg width="31" height="31" viewBox="0 0 31 31" fill="none"
    xmlns="http://www.w3.org/2000/svg">
    <path fill-rule="evenodd" clip-rule="evenodd" d="M0.81836 3.25748C0.81836 2.59246 1.08254 1.95467 1.55278 1.48443C2.02303 1.01418 2.66081 0.750003 3.32584 0.750003H28.3215C28.651 0.749465 28.9775 0.813936 29.2821 0.939724C29.5867 1.06551 29.8635 1.25015 30.0967 1.48306C30.3299 1.71597 30.5148 1.99259 30.6409 2.29707C30.767 2.60155 30.8319 2.92791 30.8317 3.25748V28.2531C30.832 28.5828 30.7674 28.9092 30.6415 29.2138C30.5155 29.5185 30.3308 29.7953 30.0977 30.0284C29.8647 30.2616 29.588 30.4465 29.2835 30.5726C28.9789 30.6987 28.6525 30.7635 28.3228 30.7633H3.32584C2.99644 30.7633 2.67026 30.6984 2.36595 30.5723C2.06164 30.4462 1.78516 30.2614 1.5523 30.0284C1.31944 29.7954 1.13477 29.5189 1.00884 29.2145C0.882906 28.9101 0.818181 28.5839 0.81836 28.2545V3.25748ZM12.6982 12.1933H16.7623V14.2342C17.3489 13.0609 18.8495 12.005 21.1046 12.005C25.4279 12.005 26.4525 14.3419 26.4525 18.6298V26.5724H22.0773V19.6066C22.0773 17.1646 21.4907 15.7867 20.001 15.7867C17.9341 15.7867 17.0747 17.2723 17.0747 19.6066V26.5724H12.6982V12.1933ZM5.19485 26.3855H9.57134V12.005H5.19485V26.3841V26.3855ZM10.1975 7.31474C10.2058 7.68946 10.1391 8.06205 10.0014 8.41065C9.8637 8.75925 9.65776 9.07684 9.39567 9.34477C9.13357 9.61271 8.82059 9.82559 8.47511 9.97092C8.12962 10.1163 7.75859 10.1911 7.38378 10.1911C7.00896 10.1911 6.63793 10.1163 6.29244 9.97092C5.94696 9.82559 5.63398 9.61271 5.37188 9.34477C5.10979 9.07684 4.90385 8.75925 4.76615 8.41065C4.62845 8.06205 4.56177 7.68946 4.57003 7.31474C4.58622 6.57921 4.88978 5.87927 5.4157 5.36481C5.94162 4.85034 6.64807 4.56227 7.38378 4.56227C8.11948 4.56227 8.82593 4.85034 9.35185 5.36481C9.87777 5.87927 10.1813 6.57921 10.1975 7.31474Z" fill="white"/>
</svg>
