<svg width="252" height="60" viewBox="0 0 252 60" fill="none"
    xmlns="http://www.w3.org/2000/svg">
    <path d="M47.1193 30.0823C47.8299 29.4367 48.5719 29.546 49.5379 30.163C49.5379 30.163 49.5379 30.163 50.3396 30.5313C51.1415 30.9011 51.9628 31.0847 52.8038 31.0847C53.6186 31.0847 54.2734 30.9337 54.7706 30.6264C55.2679 30.3219 55.5165 29.9014 55.5165 29.3664C55.5165 28.8562 55.2862 28.4631 54.8279 28.1818C54.3698 27.902 53.6942 27.6221 52.8038 27.341C51.9121 27.0872 51.1285 26.8007 50.4543 26.4819C49.7787 26.1643 49.2124 25.7934 48.7542 25.3741C48.296 24.9537 47.9523 24.4694 47.7232 23.9227C47.4929 23.3733 47.3796 22.7318 47.3796 21.9937C47.3796 20.9484 47.6139 20.0202 48.0864 19.2041C48.5563 18.3893 49.1812 17.6954 49.9582 17.1227C50.734 16.5512 51.6452 16.1178 52.6891 15.8236C53.7331 15.532 54.8279 15.385 55.9747 15.385C57.4508 15.385 58.8332 15.6322 60.1192 16.1283C61.4054 16.6255 62.4311 17.3571 63.1939 18.3255L60.6712 20.4486C59.9369 21.0682 59.2757 21.0955 58.4881 20.6439C58.4881 20.6439 58.4881 20.6439 57.8645 20.3119C57.2411 19.9813 56.4952 19.816 55.6297 19.816C54.9671 19.816 54.363 19.9448 53.8163 20.1974C53.2684 20.4525 52.9936 20.8846 52.9936 21.4978C52.9936 21.9299 53.198 22.267 53.6054 22.5105C54.0128 22.7526 54.6376 22.9869 55.4772 23.216C57.2606 23.699 58.6677 24.368 59.6986 25.2218C60.7295 26.0758 61.2462 27.3162 61.2462 28.9459C61.2462 30.0915 60.9977 31.0912 60.5005 31.9438C60.0044 32.7977 59.355 33.498 58.5519 34.046C57.75 34.5927 56.8336 35.0002 55.8015 35.2683C54.7704 35.5349 53.72 35.6679 52.6514 35.6679C50.8929 35.6679 49.3281 35.375 47.9522 34.7893C46.5764 34.2035 45.4569 33.4029 44.5899 32.3838L47.1193 30.0823Z" fill="white"/>
    <path d="M73.0112 35.5167C71.6354 35.5167 70.3557 35.3254 69.1725 34.9427C67.9881 34.5612 66.9688 34.008 66.1162 33.2817C65.2622 32.5554 64.588 31.6768 64.0921 30.6459C63.5949 29.6137 63.3475 28.4485 63.3475 27.1507C63.3475 25.5718 63.6144 24.0683 64.1494 22.6417C64.6844 21.2164 65.4537 19.968 66.4599 18.898C67.4647 17.8292 68.6818 16.9755 70.1085 16.3389C71.5338 15.7024 73.1505 15.3848 74.9585 15.3848C76.3604 15.3848 77.6595 15.5747 78.8559 15.9574C80.0534 16.3389 81.0843 16.892 81.95 17.6183C82.8156 18.3448 83.4976 19.2233 83.9936 20.2557C84.4908 21.2866 84.7382 22.4502 84.7382 23.7493C84.7382 25.3544 84.4713 26.8707 83.9363 28.2962C83.4013 29.7216 82.6241 30.9698 81.6063 32.0399C80.5871 33.1086 79.3582 33.956 77.9198 34.5795C76.4802 35.203 74.8454 35.5167 73.0112 35.5167ZM78.7036 24.3991C78.7036 23.2536 78.3521 22.2981 77.6519 21.5353C76.9527 20.7713 75.9648 20.3898 74.693 20.3898C73.8769 20.3898 73.1375 20.5538 72.4762 20.8844C71.8138 21.2164 71.254 21.6614 70.7957 22.2213C70.3363 22.7835 69.9809 23.4319 69.7258 24.1713C69.4706 24.9094 69.3442 25.6864 69.3442 26.5012C69.3442 27.6467 69.6878 28.5956 70.3752 29.3468C71.0625 30.0978 72.0427 30.4741 73.317 30.4741C74.1319 30.4741 74.8687 30.3152 75.5325 29.9964C76.1951 29.6775 76.7614 29.2388 77.2326 28.6778C77.7025 28.1181 78.0656 27.4685 78.3208 26.7305C78.576 25.9923 78.7036 25.2152 78.7036 24.3991Z" fill="white"/>
    <path d="M96.6423 36.329C96.1672 37.1648 95.3784 38.5225 94.8902 39.3489C94.8902 39.3489 94.6637 39.7304 94.1169 40.5205C93.569 41.3093 92.9714 41.9731 92.3219 42.5068C91.671 43.0405 90.9264 43.4481 90.0871 43.729C89.2474 44.009 88.2646 44.1494 87.1451 44.1494C85.9476 44.1494 84.9049 44.0089 84.0132 43.729L84.6172 40.4032C84.789 39.4596 85.4502 38.8411 86.0882 39.0299C86.0882 39.0299 86.0882 39.0299 86.7261 39.0299C87.6163 39.0299 88.3102 38.8072 88.8075 38.3609C89.3036 37.9157 89.7812 37.2856 90.2393 36.4708L90.2745 36.4109C90.7599 35.5817 90.9787 34.1407 90.7627 33.2047L87.1569 17.6573C86.9408 16.7201 87.5488 15.9573 88.5081 15.9573H91.7038C92.6633 15.9573 93.5666 16.7332 93.7137 17.682L95.0934 26.6859C95.2392 27.6347 95.3758 28.4106 95.3968 28.4106C95.4176 28.4106 95.7898 27.7103 96.2234 26.8539L100.95 17.5142C101.385 16.6577 102.523 15.9574 103.483 15.9574H106.487C107.448 15.9574 107.843 16.6396 107.37 17.4739L96.6423 36.329Z" fill="white"/>
    <path d="M124.899 7.82194C125.061 6.87682 125.977 6.10107 126.938 6.10107H129.559C130.52 6.10107 131.167 6.87567 131 7.82079L126.49 33.2636C126.324 34.2087 125.401 34.9819 124.441 34.9819H122.316C121.356 34.9819 120.673 34.3975 120.799 33.6828C120.925 32.9682 121.003 32.3837 120.971 32.3837C120.941 32.3837 120.388 32.9668 119.745 33.6789C119.745 33.6789 119.361 34.1031 118.24 34.6369C117.119 35.1719 115.858 35.4388 114.457 35.4388C113.236 35.4388 112.134 35.2357 111.153 34.8283C110.173 34.4222 109.347 33.8559 108.671 33.1296C107.996 32.4019 107.48 31.544 107.123 30.5495C106.767 29.5577 106.589 28.4629 106.589 27.2652C106.589 25.6355 106.85 24.1086 107.372 22.6794C107.894 21.2554 108.619 20.0069 109.55 18.937C110.478 17.867 111.587 17.0209 112.873 16.396C114.159 15.7739 115.566 15.4602 117.094 15.4602C118.495 15.4602 119.703 15.7284 120.722 16.2632C121.741 16.7983 122.506 17.5117 123.015 18.4033C123.057 18.4033 123.224 17.6275 123.385 16.6824L124.899 7.82194ZM112.662 26.4623C112.662 27.6078 112.994 28.5633 113.657 29.3272C114.318 30.0914 115.299 30.4741 116.597 30.4741C117.363 30.4741 118.075 30.3152 118.736 29.9964C119.399 29.6775 119.973 29.2387 120.456 28.6778C120.94 28.1181 121.316 27.4685 121.584 26.7305C121.851 25.9924 121.984 25.2153 121.984 24.3992C121.984 23.2289 121.627 22.2669 120.914 21.5159C120.2 20.7647 119.233 20.3898 118.011 20.3898C117.196 20.3898 116.457 20.5487 115.795 20.8663C115.133 21.1851 114.573 21.6173 114.114 22.1654C113.657 22.7133 113.299 23.3563 113.045 24.0944C112.79 24.8325 112.662 25.6213 112.662 26.4623Z" fill="white"/>
    <path d="M138.169 27.1118C137.208 27.1118 136.405 27.2095 136.385 27.3291C136.385 27.3291 136.385 27.3291 136.385 27.4554C136.385 27.9904 136.505 28.4695 136.749 28.8885C136.989 29.3089 137.307 29.6656 137.703 29.9586C138.097 30.2514 138.544 30.4741 139.039 30.6263C139.537 30.7801 140.051 30.8555 140.587 30.8555C141.554 30.8555 142.407 30.6785 143.146 30.3218C143.884 29.9639 144.547 29.4797 145.133 28.8678L147.616 30.8112C148.371 31.4034 148.397 32.4006 147.671 33.028C147.671 33.028 146.406 34.1214 144.904 34.6941C143.4 35.2682 141.783 35.5545 140.051 35.5545C138.727 35.5545 137.498 35.3696 136.366 35C135.232 34.6315 134.245 34.0836 133.404 33.3573C132.563 32.6321 131.902 31.7341 131.418 30.664C130.935 29.5953 130.693 28.3731 130.693 26.9984C130.693 25.3675 130.979 23.8457 131.552 22.4321C132.125 21.0199 132.914 19.7896 133.921 18.7456C134.926 17.703 136.13 16.8817 137.531 16.2816C138.931 15.6841 140.471 15.3848 142.153 15.3848C143.4 15.3848 144.54 15.563 145.571 15.9197C146.603 16.2764 147.487 16.7906 148.227 17.4662C148.965 18.1417 149.538 18.9762 149.946 19.968C150.352 20.9612 150.557 22.1081 150.557 23.4071C150.557 23.8654 150.513 24.4433 150.423 25.1435C150.334 25.8451 150.214 26.5012 150.061 27.1118H138.169ZM143.349 23.3682C144.31 23.3682 145.112 23.2537 145.133 23.1131C145.133 23.1131 145.133 23.1131 145.133 22.9868C145.133 22.8592 145.133 22.7317 145.133 22.6041C145.133 21.7644 144.833 21.0628 144.236 20.5044C143.636 19.9447 142.777 19.6622 141.656 19.6622C140.969 19.6622 140.352 19.7833 139.804 20.0253C139.256 20.2687 138.778 20.5669 138.372 20.9235C137.965 21.2802 137.633 21.6759 137.379 22.1081C137.124 22.5415 136.945 22.9608 136.844 23.3681L143.349 23.3682Z" fill="white"/>
    <path d="M153.525 34.9817C152.564 34.9817 151.915 34.2086 152.081 33.2623L156.558 7.82079C156.723 6.87567 157.646 6.10107 158.605 6.10107H161.343C162.302 6.10107 162.949 6.87567 162.782 7.82079L158.271 33.2636C158.106 34.2087 157.183 34.9819 156.223 34.9819H153.525V34.9817Z" fill="white"/>
    <path d="M163.876 34.9818C162.917 34.9818 162.267 34.2074 162.432 33.2624L165.156 17.6772C165.32 16.7308 166.24 15.9576 167.2 15.9576H169.861C170.82 15.9576 171.468 16.7309 171.298 17.6746L168.513 33.2637C168.343 34.2088 167.42 34.982 166.461 34.982H163.876V34.9818ZM172.905 9.57925C172.905 10.0882 172.813 10.5581 172.636 10.9915C172.459 11.4251 172.209 11.813 171.893 12.1552C171.573 12.5002 171.198 12.767 170.764 12.9584C170.331 13.1497 169.861 13.2461 169.351 13.2461C168.384 13.2461 167.587 12.9584 166.964 12.3857C166.34 11.813 166.028 11.0802 166.028 10.1898C166.028 9.14584 166.378 8.2724 167.079 7.57337C167.778 6.87175 168.637 6.52295 169.658 6.52295C170.599 6.52295 171.376 6.81457 171.988 7.40156C172.6 7.9861 172.905 8.71228 172.905 9.57925Z" fill="white"/>
    <path d="M184.067 33.4773C183.58 34.3052 182.394 34.982 181.434 34.982H178.278C177.318 34.982 176.39 34.2101 176.215 33.2664L173.335 17.6735C173.162 16.7296 173.804 15.9578 174.763 15.9578H177.728C178.689 15.9578 179.573 16.7362 179.691 17.6891L180.824 26.7177C180.942 27.6705 181.066 28.4489 181.097 28.4489C181.13 28.4489 181.522 27.755 181.971 26.9064L186.948 17.5005C187.396 16.6518 188.55 15.9579 189.509 15.9579H192.667C193.626 15.9579 194.011 16.635 193.523 17.4601L184.067 33.4773Z" fill="white"/>
    <path d="M200.433 27.1118C199.473 27.1118 198.67 27.2095 198.651 27.3291C198.651 27.3291 198.651 27.3291 198.651 27.4554C198.651 27.9904 198.77 28.4695 199.012 28.8885C199.256 29.3089 199.572 29.6656 199.968 29.9586C200.362 30.2514 200.809 30.4741 201.305 30.6263C201.802 30.7801 202.317 30.8555 202.852 30.8555C203.82 30.8555 204.673 30.6785 205.41 30.3218C206.15 29.9639 206.811 29.4797 207.398 28.8678L209.881 30.8112C210.636 31.4034 210.662 32.4006 209.935 33.028C209.935 33.028 208.671 34.1214 207.169 34.6941C205.665 35.2682 204.05 35.5545 202.317 35.5545C200.994 35.5545 199.763 35.3696 198.631 35C197.497 34.6315 196.511 34.0836 195.67 33.3573C194.83 32.6321 194.167 31.7341 193.684 30.664C193.2 29.5953 192.958 28.3731 192.958 26.9984C192.958 25.3675 193.245 23.8457 193.817 22.4321C194.39 21.0199 195.18 19.7896 196.186 18.7456C197.193 17.703 198.395 16.8817 199.796 16.2816C201.197 15.6841 202.738 15.3848 204.418 15.3848C205.665 15.3848 206.806 15.563 207.836 15.9197C208.869 16.2764 209.752 16.7906 210.49 17.4662C211.229 18.1417 211.804 18.9762 212.211 19.968C212.619 20.9612 212.822 22.1081 212.822 23.4071C212.822 23.8654 212.778 24.4433 212.688 25.1435C212.598 25.8451 212.478 26.5012 212.325 27.1118H200.433ZM205.615 23.3682C206.574 23.3682 207.376 23.2537 207.398 23.1131C207.398 23.1131 207.398 23.1131 207.398 22.9868C207.398 22.8592 207.398 22.7317 207.398 22.6041C207.398 21.7644 207.099 21.0628 206.501 20.5044C205.902 19.9447 205.043 19.6622 203.921 19.6622C203.234 19.6622 202.617 19.7833 202.069 20.0253C201.522 20.2687 201.043 20.5669 200.636 20.9235C200.228 21.2802 199.898 21.6759 199.644 22.1081C199.389 22.5415 199.209 22.9608 199.109 23.3681L205.615 23.3682Z" fill="white"/>
    <path d="M222.003 18.7456C222.046 18.7456 222.558 18.1222 223.14 17.3594C223.14 17.3594 223.423 16.9884 224.277 16.3779C225.13 15.7661 226.154 15.4602 227.352 15.4602C227.582 15.4602 227.816 15.4733 228.06 15.4993C228.301 15.5253 228.499 15.5631 228.651 15.6126L227.971 19.3224C227.8 20.2661 227.412 20.9808 227.11 20.9106C227.11 20.9106 227.11 20.9106 226.856 20.8844C226.601 20.8597 226.359 20.8466 226.13 20.8466C225.238 20.8466 224.488 20.999 223.876 21.3049C223.266 21.6107 222.762 21.987 222.368 22.4322C221.972 22.8787 221.679 23.3563 221.489 23.8654C221.298 24.3757 221.164 24.8209 221.088 25.2022L219.671 33.2622C219.504 34.2084 218.584 34.9816 217.623 34.9816H215C214.041 34.9816 213.395 34.2085 213.564 33.2633L215.66 21.6093C215.831 20.6656 216.064 19.3925 216.178 18.7833C216.178 18.7833 216.178 18.7833 216.294 18.0205C216.407 17.2565 216.491 16.5691 216.541 15.9573H220.604C221.565 15.9573 222.342 16.0979 222.335 16.2684C222.335 16.2684 222.335 16.2684 222.31 16.5119C222.284 16.754 222.252 17.0078 222.214 17.2746C222.175 17.5414 222.139 17.8096 222.1 18.0765C222.063 18.3448 222.029 18.5687 222.003 18.7456Z" fill="white"/>
    <path d="M240.197 36.329C239.722 37.1648 238.934 38.5225 238.445 39.3489C238.445 39.3489 238.219 39.7304 237.671 40.5205C237.125 41.3093 236.525 41.9731 235.876 42.5068C235.225 43.0405 234.482 43.4481 233.643 43.729C232.802 44.009 231.82 44.1494 230.701 44.1494C229.504 44.1494 228.46 44.0089 227.568 43.729L228.171 40.4032C228.345 39.4596 229.006 38.8411 229.642 39.0299C229.642 39.0299 229.642 39.0299 230.279 39.0299C231.172 39.0299 231.866 38.8072 232.363 38.3609C232.859 37.9157 233.337 37.2856 233.795 36.4708L233.83 36.4109C234.314 35.5817 234.533 34.1407 234.317 33.2047L230.712 17.6573C230.495 16.7201 231.103 15.9573 232.064 15.9573H235.258C236.219 15.9573 237.122 16.7332 237.267 17.682L238.649 26.6859C238.795 27.6347 238.931 28.4106 238.952 28.4106C238.972 28.4106 239.344 27.7103 239.778 26.8539L244.505 17.5142C244.937 16.6577 246.076 15.9574 247.038 15.9574H250.043C251.002 15.9574 251.398 16.6396 250.925 17.4739L240.197 36.329Z" fill="white"/>
    <path d="M248.638 31.3098C250.053 31.3098 251.213 32.4905 251.213 33.9041C251.213 35.3295 250.053 36.4918 248.638 36.4918C247.21 36.4918 246.038 35.3293 246.038 33.9041C246.038 32.4905 247.21 31.3098 248.638 31.3098ZM248.65 36.0741C249.828 36.0741 250.785 35.1018 250.785 33.9041C250.785 32.6987 249.828 31.7368 248.65 31.7368C247.436 31.7368 246.474 32.6987 246.474 33.9041C246.474 35.1018 247.436 36.0741 248.65 36.0741ZM249.839 33.4357C249.839 33.8742 249.612 34.1568 249.236 34.2492L249.746 35.1019C249.797 35.1852 249.797 35.2516 249.652 35.2516H249.468C249.344 35.2516 249.334 35.2216 249.293 35.1552L248.8 34.2883H247.988V35.1552C247.988 35.2216 247.972 35.2516 247.879 35.2516H247.693C247.61 35.2516 247.585 35.2216 247.585 35.1552V32.6898C247.585 32.583 247.61 32.557 247.73 32.557H248.908C249.478 32.5569 249.839 32.8745 249.839 33.4357ZM248.891 33.9301C249.225 33.9301 249.426 33.7557 249.426 33.4357C249.426 33.1284 249.225 32.9422 248.891 32.9422H247.988V33.9301H248.891Z" fill="white"/>
    <path d="M16.314 0.712843C7.25877 0.755078 -0.0454698 7.63423 0.000213123 16.0747C0.0767823 30.3098 13.8829 43.2195 13.8829 43.2195C15.3609 44.6012 17.7186 44.5477 19.1228 43.1007C19.1228 43.1007 32.8656 28.9328 32.7948 15.9207C32.7497 7.47995 25.3703 0.670464 16.314 0.712843ZM15.2714 25.932C15.2714 26.3454 14.8236 26.6037 14.4658 26.3967L8.455 22.9201C7.90422 22.6014 7.56505 22.0134 7.56505 21.3772V15.1887C7.56505 14.8192 7.96714 14.5901 8.28506 14.7784L14.516 18.4714C14.9844 18.749 15.2715 19.2531 15.2715 19.7974L15.2714 25.932ZM15.8279 16.3434L9.14341 12.4163C8.75611 12.1887 8.75884 11.6278 9.14843 11.4041L15.8558 7.55293C16.2477 7.32796 16.7298 7.32896 17.1207 7.55594L23.7532 11.4055C24.1396 11.6298 24.1423 12.1869 23.7582 12.415L17.1484 16.3406C16.7417 16.5819 16.2358 16.5831 15.8279 16.3434ZM25.2303 21.377C25.2303 22.0133 24.8911 22.6014 24.3403 22.9199L18.3294 26.3966C17.9716 26.6036 17.5238 26.3453 17.5238 25.9318V19.7972C17.5238 19.2528 17.8109 18.7488 18.2793 18.4713L24.5101 14.7783C24.828 14.59 25.2301 14.8189 25.2301 15.1886V21.377H25.2303Z" fill="white"/>
    <path d="M166.052 51.3772C165.906 51.5266 165.73 51.6014 165.522 51.6014C165.315 51.6014 165.138 51.5266 164.993 51.3772C164.848 51.2277 164.775 51.0492 164.775 50.8416C164.775 50.6298 164.848 50.4492 164.993 50.2998C165.138 50.1503 165.315 50.0756 165.522 50.0756C165.73 50.0756 165.906 50.1503 166.052 50.2998C166.197 50.4492 166.27 50.6298 166.27 50.8416C166.27 51.0492 166.197 51.2277 166.052 51.3772ZM170.174 51.6014C169.327 51.6014 168.696 51.3128 168.281 50.7357C167.899 50.2043 167.708 49.5857 167.708 48.8798C167.708 48.6141 167.737 48.338 167.795 48.0516C168.04 46.8517 168.507 45.9611 169.197 45.3799C169.89 44.7945 170.693 44.5018 171.607 44.5018C172.474 44.5018 173.108 44.8007 173.506 45.3986C173.539 45.4484 173.556 45.5065 173.556 45.5729C173.556 45.656 173.5 45.7432 173.388 45.8345L172.996 46.1583C172.925 46.2165 172.856 46.2455 172.79 46.2455C172.695 46.2455 172.62 46.204 172.566 46.121C172.296 45.7058 171.91 45.4982 171.407 45.4982C170.905 45.4982 170.44 45.6933 170.012 46.0836C169.51 46.5445 169.172 47.2004 168.997 48.0516C168.931 48.3754 168.898 48.6681 168.898 48.9297C168.898 49.3573 168.987 49.7081 169.165 49.9822C169.435 50.3973 169.821 50.6049 170.324 50.6049C170.835 50.6049 171.308 50.3973 171.744 49.9822C171.831 49.8991 171.922 49.8576 172.018 49.8576C172.084 49.8576 172.14 49.8867 172.186 49.9448L172.516 50.362C172.562 50.4202 172.584 50.4824 172.584 50.5489C172.584 50.6319 172.539 50.7149 172.447 50.798C171.825 51.3336 171.067 51.6014 170.174 51.6014ZM176.502 51.6014C175.605 51.6014 174.943 51.3128 174.515 50.7357C174.15 50.2458 173.967 49.65 173.967 48.9484C173.967 48.5747 174.019 48.174 174.123 47.7464C174.372 46.7085 174.818 45.9196 175.462 45.3799C176.155 44.7945 176.921 44.5018 177.76 44.5018C178.657 44.5018 179.319 44.7903 179.746 45.3674C180.112 45.8573 180.294 46.4531 180.294 47.1548C180.294 47.5284 180.243 47.9291 180.139 48.3567C179.89 49.3947 179.443 50.1835 178.8 50.7233C178.106 51.3087 177.34 51.6014 176.502 51.6014ZM176.589 50.6049C177.083 50.6049 177.556 50.3973 178.009 49.9822C178.49 49.5421 178.821 48.8985 178.999 48.0516C179.065 47.7319 179.099 47.4392 179.099 47.1735C179.099 46.7292 179.005 46.3659 178.818 46.0836C178.561 45.6933 178.177 45.4982 177.666 45.4982C177.16 45.4982 176.697 45.6933 176.278 46.0836C175.783 46.5362 175.445 47.1921 175.262 48.0516C175.196 48.3754 175.163 48.6681 175.163 48.9297C175.163 49.3573 175.252 49.7081 175.431 49.9822C175.713 50.3973 176.099 50.6049 176.589 50.6049ZM181.652 51.4768C181.478 51.4768 181.39 51.4062 181.39 51.2651C181.39 51.236 181.395 51.2049 181.403 51.1716L182.729 44.9315C182.771 44.728 182.898 44.6263 183.109 44.6263H183.608C183.778 44.6263 183.863 44.6969 183.863 44.8381C183.863 44.8671 183.859 44.8983 183.85 44.9315L183.826 45.0498C184.22 44.6844 184.722 44.5018 185.333 44.5018C186.072 44.5018 186.636 44.7218 187.027 45.1619C187.085 45.2325 187.137 45.3093 187.182 45.3923C187.701 44.7986 188.434 44.5018 189.381 44.5018C190.091 44.5018 190.655 44.7218 191.075 45.1619C191.403 45.5148 191.567 45.9445 191.567 46.451C191.567 46.6379 191.544 46.8351 191.498 47.0427L190.62 51.1716C190.578 51.3751 190.454 51.4768 190.246 51.4768H189.748C189.574 51.4768 189.487 51.4062 189.487 51.2651C189.487 51.236 189.491 51.2049 189.499 51.1716L190.377 47.0427C190.41 46.8932 190.427 46.752 190.427 46.6192C190.423 46.3452 190.35 46.1127 190.209 45.9217C190.001 45.6394 189.644 45.4982 189.138 45.4982C188.536 45.4982 188 45.7556 187.531 46.2704C187.531 46.532 187.504 46.7894 187.45 47.0427L186.572 51.1716C186.53 51.3751 186.406 51.4768 186.198 51.4768H185.7C185.526 51.4768 185.439 51.4062 185.439 51.2651C185.439 51.236 185.443 51.2049 185.451 51.1716L186.329 47.0427C186.362 46.8932 186.379 46.752 186.379 46.6192C186.375 46.3452 186.302 46.1127 186.161 45.9217C185.953 45.6394 185.596 45.4982 185.09 45.4982C184.467 45.4982 183.969 45.7162 183.595 46.1521L182.524 51.1716C182.482 51.3751 182.358 51.4768 182.15 51.4768H181.652ZM193.528 51.3772C193.383 51.5266 193.207 51.6014 192.999 51.6014C192.791 51.6014 192.615 51.5266 192.47 51.3772C192.324 51.2277 192.252 51.0492 192.252 50.8416C192.252 50.6298 192.324 50.4492 192.47 50.2998C192.615 50.1503 192.791 50.0756 192.999 50.0756C193.207 50.0756 193.383 50.1503 193.528 50.2998C193.674 50.4492 193.746 50.6298 193.746 50.8416C193.746 51.0492 193.674 51.2277 193.528 51.3772ZM199.712 51.4768H199.214C199.04 51.4768 198.953 51.4062 198.953 51.2651C198.953 51.236 198.957 51.2049 198.965 51.1716L198.99 51.0533C198.612 51.4187 198.11 51.6014 197.483 51.6014C196.769 51.6014 196.204 51.3813 195.789 50.9412C195.461 50.5883 195.297 50.1586 195.297 49.6521C195.297 49.4653 195.32 49.268 195.365 49.0605L196.244 44.9315C196.285 44.728 196.41 44.6263 196.617 44.6263H197.115C197.29 44.6263 197.377 44.6969 197.377 44.8381C197.377 44.8671 197.373 44.8983 197.365 44.9315L196.486 49.0605C196.453 49.2099 196.437 49.3511 196.437 49.4839C196.441 49.758 196.513 49.9905 196.655 50.1814C196.862 50.4638 197.219 50.6049 197.726 50.6049C198.349 50.6049 198.847 50.387 199.22 49.951L200.292 44.9315C200.333 44.728 200.46 44.6263 200.671 44.6263H201.17C201.34 44.6263 201.425 44.6948 201.425 44.8318C201.425 44.8609 201.421 44.8941 201.413 44.9315L200.086 51.1716C200.045 51.3751 199.92 51.4768 199.712 51.4768ZM205.149 51.6014C204.34 51.6014 203.754 51.3813 203.393 50.9412C203.065 50.5426 202.901 50.0943 202.901 49.596C202.901 49.4217 202.922 49.2431 202.963 49.0605L203.841 44.9315C203.883 44.728 204.01 44.6263 204.221 44.6263H204.72C204.89 44.6263 204.975 44.6948 204.975 44.8318C204.975 44.8609 204.971 44.8941 204.962 44.9315L204.084 49.0605C204.051 49.2099 204.034 49.349 204.034 49.4777C204.034 49.7559 204.107 49.9905 204.252 50.1814C204.464 50.4638 204.823 50.6049 205.33 50.6049C205.953 50.6049 206.451 50.387 206.824 49.951L207.889 44.9315C207.931 44.728 208.058 44.6263 208.269 44.6263H208.768C208.938 44.6263 209.023 44.6948 209.023 44.8318C209.023 44.8609 209.019 44.8941 209.01 44.9315L207.622 51.4893C207.439 52.357 207.111 52.9839 206.638 53.37C206.09 53.8101 205.417 54.0302 204.62 54.0302H203.219C203.044 54.0302 202.957 53.9596 202.957 53.8184C202.957 53.7894 202.961 53.7582 202.97 53.725L203.05 53.3389C203.092 53.1355 203.219 53.0337 203.43 53.0337H204.707C205.139 53.0337 205.517 52.9092 205.841 52.6601C206.168 52.4068 206.378 52.0622 206.47 51.6263L206.588 51.0533C206.193 51.4187 205.714 51.6014 205.149 51.6014Z" fill="white"/>
</svg>
